<mxfile host="app.diagrams.net" modified="2021-07-19T11:11:20.994Z" agent="5.0 (X11; Linux x86_64) AppleWebKit/537.36 (KHTML, like Gecko) Chrome/91.0.4472.114 Safari/537.36" etag="lWF39j5XacgIiHoSyHzv" version="14.9.0" type="github">
  <diagram name="Page-1" id="aaaa8250-4180-3840-79b5-4cada1eebb92">
    <mxGraphModel dx="5400" dy="3932" grid="1" gridSize="10" guides="1" tooltips="1" connect="1" arrows="1" fold="1" page="1" pageScale="1" pageWidth="850" pageHeight="1100" background="none" math="0" shadow="0">
      <root>
        <mxCell id="0" />
        <mxCell id="1" parent="0" />
        <mxCell id="Eb9YTv325VDw8jvG4K9L-29" value="" style="verticalLabelPosition=bottom;html=1;verticalAlign=top;strokeWidth=1;dashed=0;shape=mxgraph.aws3d.flatDoubleEdge;fillColor=#000000;aspect=fixed;rounded=1;shadow=0;comic=0;fontFamily=Verdana;fontSize=12;flipV=1;" vertex="1" parent="1">
          <mxGeometry x="2060" y="510" width="983.55" height="560.94" as="geometry" />
        </mxCell>
        <mxCell id="1a8abee3a6cfdf20-28" value="" style="verticalLabelPosition=bottom;html=1;verticalAlign=top;strokeWidth=1;dashed=0;shape=mxgraph.aws3d.flatDoubleEdge;fillColor=#000000;aspect=fixed;rounded=1;shadow=0;comic=0;fontFamily=Verdana;fontSize=12;flipV=1;" parent="1" vertex="1">
          <mxGeometry x="901" y="-320" width="1223.55" height="697.81" as="geometry" />
        </mxCell>
        <mxCell id="Eb9YTv325VDw8jvG4K9L-7" value="&lt;h1&gt;&lt;font style=&quot;font-size: 60px&quot;&gt;Drivers&lt;/font&gt;&lt;/h1&gt;" style="verticalLabelPosition=bottom;html=1;verticalAlign=top;strokeWidth=1;align=center;outlineConnect=0;dashed=0;outlineConnect=0;shape=mxgraph.aws3d.mobile_worker;aspect=fixed;strokeColor=none;fillColor=#777777;" vertex="1" parent="1">
          <mxGeometry x="170" y="310" width="130" height="325" as="geometry" />
        </mxCell>
        <mxCell id="Eb9YTv325VDw8jvG4K9L-8" value="&lt;h1 style=&quot;font-size: 60px&quot;&gt;Passengers&lt;/h1&gt;" style="verticalLabelPosition=bottom;html=1;verticalAlign=top;strokeWidth=1;align=center;outlineConnect=0;dashed=0;outlineConnect=0;shape=mxgraph.aws3d.mobile_worker;aspect=fixed;strokeColor=none;fillColor=#777777;" vertex="1" parent="1">
          <mxGeometry x="650" y="680" width="130" height="325" as="geometry" />
        </mxCell>
        <mxCell id="Eb9YTv325VDw8jvG4K9L-22" value="" style="edgeStyle=orthogonalEdgeStyle;rounded=0;orthogonalLoop=1;jettySize=auto;fontSize=14;html=1;" edge="1" parent="1" source="Eb9YTv325VDw8jvG4K9L-9" target="Eb9YTv325VDw8jvG4K9L-21">
          <mxGeometry relative="1" as="geometry" />
        </mxCell>
        <object label="&lt;h1&gt;&lt;font face=&quot;Verdana&quot;&gt;&lt;span style=&quot;font-size: 46px&quot;&gt;Payment Gateway (API)&lt;/span&gt;&lt;/font&gt;&lt;/h1&gt;" placeholders="1" id="Eb9YTv325VDw8jvG4K9L-9">
          <mxCell style="verticalLabelPosition=bottom;html=1;verticalAlign=top;strokeWidth=1;align=center;outlineConnect=0;dashed=0;outlineConnect=0;shape=mxgraph.aws3d.application_server;fillColor=#ECECEC;strokeColor=#5E5E5E;aspect=fixed;" vertex="1" parent="1">
            <mxGeometry x="3000" y="-580" width="333" height="335.71" as="geometry" />
          </mxCell>
        </object>
        <mxCell id="Eb9YTv325VDw8jvG4K9L-10" value="&lt;h1&gt;&lt;font style=&quot;font-size: 60px&quot;&gt;Cloud Database Server&lt;/font&gt;&lt;/h1&gt;" style="verticalLabelPosition=bottom;html=1;verticalAlign=top;strokeWidth=1;align=center;outlineConnect=0;dashed=0;outlineConnect=0;shape=mxgraph.aws3d.dataCenter;strokeColor=#5E5E5E;aspect=fixed;" vertex="1" parent="1">
          <mxGeometry x="2954.28" y="90.00000000000003" width="424.44" height="490" as="geometry" />
        </mxCell>
        <mxCell id="Eb9YTv325VDw8jvG4K9L-14" value="" style="verticalLabelPosition=bottom;html=1;verticalAlign=top;strokeWidth=1;align=center;outlineConnect=0;dashed=0;outlineConnect=0;shape=mxgraph.aws3d.secureConnection;fillColor=#000000;strokeColor=#ffffff;aspect=fixed;" vertex="1" parent="1">
          <mxGeometry x="550" y="426" width="268.24" height="160" as="geometry" />
        </mxCell>
        <mxCell id="Eb9YTv325VDw8jvG4K9L-18" value="&lt;h1&gt;&lt;span style=&quot;font-size: 60px&quot;&gt;Internet AWS&lt;/span&gt;&lt;/h1&gt;" style="ellipse;shape=cloud;whiteSpace=wrap;html=1;" vertex="1" parent="1">
          <mxGeometry x="2840" y="-147" width="591" height="394" as="geometry" />
        </mxCell>
        <object label="&lt;h1&gt;&lt;font face=&quot;Verdana&quot;&gt;&lt;span style=&quot;font-size: 46px&quot;&gt;Application Server&lt;/span&gt;&lt;/font&gt;&lt;/h1&gt;" placeholders="1" id="Eb9YTv325VDw8jvG4K9L-21">
          <mxCell style="verticalLabelPosition=bottom;html=1;verticalAlign=top;strokeWidth=1;align=center;outlineConnect=0;dashed=0;outlineConnect=0;shape=mxgraph.aws3d.application_server;fillColor=#ECECEC;strokeColor=#5E5E5E;aspect=fixed;" vertex="1" parent="1">
            <mxGeometry x="2080" y="-580" width="333" height="335.71" as="geometry" />
          </mxCell>
        </object>
        <mxCell id="Eb9YTv325VDw8jvG4K9L-24" value="" style="edgeStyle=orthogonalEdgeStyle;rounded=0;orthogonalLoop=1;jettySize=auto;html=1;" edge="1" parent="1" source="Eb9YTv325VDw8jvG4K9L-10" target="Eb9YTv325VDw8jvG4K9L-9">
          <mxGeometry relative="1" as="geometry" />
        </mxCell>
        <mxCell id="Eb9YTv325VDw8jvG4K9L-23" value="a" style="text;html=1;align=center;verticalAlign=middle;resizable=0;points=[];autosize=1;strokeColor=none;" vertex="1" parent="1">
          <mxGeometry x="2370" y="40" width="20" height="20" as="geometry" />
        </mxCell>
        <mxCell id="Eb9YTv325VDw8jvG4K9L-19" value="&lt;h1 style=&quot;font-size: 60px&quot;&gt;Internet AWS&lt;/h1&gt;" style="ellipse;shape=cloud;whiteSpace=wrap;html=1;" vertex="1" parent="1">
          <mxGeometry x="2440" y="-720" width="545" height="310" as="geometry" />
        </mxCell>
        <mxCell id="Eb9YTv325VDw8jvG4K9L-26" value="&lt;h1&gt;&lt;font style=&quot;font-size: 60px&quot;&gt;LGUs&lt;/font&gt;&lt;/h1&gt;" style="verticalLabelPosition=bottom;html=1;verticalAlign=top;strokeWidth=1;align=center;outlineConnect=0;dashed=0;outlineConnect=0;shape=mxgraph.aws3d.client;aspect=fixed;strokeColor=none;fillColor=#777777;fontSize=14;" vertex="1" parent="1">
          <mxGeometry x="1520.0000000000002" y="1140" width="225" height="390" as="geometry" />
        </mxCell>
        <object label="&lt;h1&gt;&lt;font face=&quot;Verdana&quot;&gt;&lt;span style=&quot;font-size: 46px&quot;&gt;Government/Operators/Transport Group API services&lt;/span&gt;&lt;/font&gt;&lt;/h1&gt;" placeholders="1" id="Eb9YTv325VDw8jvG4K9L-28">
          <mxCell style="verticalLabelPosition=bottom;html=1;verticalAlign=top;strokeWidth=1;align=center;outlineConnect=0;dashed=0;outlineConnect=0;shape=mxgraph.aws3d.application_server;fillColor=#ECECEC;strokeColor=#5E5E5E;aspect=fixed;" vertex="1" parent="1">
            <mxGeometry x="2413" y="570" width="333" height="335.71" as="geometry" />
          </mxCell>
        </object>
        <mxCell id="Eb9YTv325VDw8jvG4K9L-30" value="" style="verticalLabelPosition=bottom;html=1;verticalAlign=top;strokeWidth=1;align=center;outlineConnect=0;dashed=0;outlineConnect=0;shape=mxgraph.aws3d.secureConnection;fillColor=#000000;strokeColor=#ffffff;aspect=fixed;" vertex="1" parent="1">
          <mxGeometry x="1811.76" y="1040" width="268.24" height="160" as="geometry" />
        </mxCell>
        <mxCell id="Eb9YTv325VDw8jvG4K9L-32" value="&lt;h1&gt;&lt;font style=&quot;font-size: 60px&quot;&gt;Approved Routes and Fare Matrix&lt;/font&gt;&lt;/h1&gt;" style="verticalLabelPosition=bottom;html=1;verticalAlign=top;strokeWidth=1;align=center;outlineConnect=0;dashed=0;outlineConnect=0;shape=mxgraph.aws3d.arrowNW;fillColor=#000000;aspect=fixed;fontSize=14;" vertex="1" parent="1">
          <mxGeometry x="1240" y="260.28" width="860" height="491.43" as="geometry" />
        </mxCell>
        <mxCell id="Eb9YTv325VDw8jvG4K9L-33" value="" style="verticalLabelPosition=bottom;html=1;verticalAlign=top;strokeWidth=1;align=center;outlineConnect=0;dashed=0;outlineConnect=0;shape=mxgraph.aws3d.arrowNE;fillColor=#000000;aspect=fixed;fontSize=14;" vertex="1" parent="1">
          <mxGeometry x="1240" y="-260" width="915" height="522.86" as="geometry" />
        </mxCell>
        <mxCell id="Eb9YTv325VDw8jvG4K9L-36" value="" style="verticalLabelPosition=bottom;html=1;verticalAlign=top;strokeWidth=1;align=center;outlineConnect=0;dashed=0;outlineConnect=0;shape=mxgraph.aws3d.arrowSE;fillColor=#000000;aspect=fixed;fontSize=14;" vertex="1" parent="1">
          <mxGeometry x="1670" y="460" width="45.5" height="26" as="geometry" />
        </mxCell>
        <mxCell id="Eb9YTv325VDw8jvG4K9L-37" value="" style="verticalLabelPosition=bottom;html=1;verticalAlign=top;strokeWidth=1;align=center;outlineConnect=0;dashed=0;outlineConnect=0;shape=mxgraph.aws3d.arrowSE;fillColor=#000000;aspect=fixed;fontSize=14;" vertex="1" parent="1">
          <mxGeometry x="320" y="647.14" width="320" height="182.86" as="geometry" />
        </mxCell>
        <mxCell id="Eb9YTv325VDw8jvG4K9L-38" value="" style="verticalLabelPosition=bottom;html=1;verticalAlign=top;strokeWidth=1;align=center;outlineConnect=0;dashed=0;outlineConnect=0;shape=mxgraph.aws3d.arrowNW;fillColor=#000000;aspect=fixed;fontSize=14;" vertex="1" parent="1">
          <mxGeometry x="290" y="480" width="350" height="200" as="geometry" />
        </mxCell>
        <mxCell id="Eb9YTv325VDw8jvG4K9L-39" value="&lt;h1 style=&quot;font-size: 60px&quot;&gt;Transport Group Officers&lt;/h1&gt;" style="verticalLabelPosition=bottom;html=1;verticalAlign=top;strokeWidth=1;align=center;outlineConnect=0;dashed=0;outlineConnect=0;shape=mxgraph.aws3d.mobile_worker;aspect=fixed;strokeColor=none;fillColor=#777777;" vertex="1" parent="1">
          <mxGeometry x="1880.88" y="1360" width="130" height="325" as="geometry" />
        </mxCell>
        <mxCell id="Eb9YTv325VDw8jvG4K9L-40" value="&lt;h1 style=&quot;font-size: 60px&quot;&gt;Operators&lt;/h1&gt;" style="verticalLabelPosition=bottom;html=1;verticalAlign=top;strokeWidth=1;align=center;outlineConnect=0;dashed=0;outlineConnect=0;shape=mxgraph.aws3d.mobile_worker;aspect=fixed;strokeColor=none;fillColor=#777777;" vertex="1" parent="1">
          <mxGeometry x="1230" y="980" width="130" height="325" as="geometry" />
        </mxCell>
      </root>
    </mxGraphModel>
  </diagram>
</mxfile>
